<?xml version="1.0" encoding="UTF-8" standalone="no"?>
<svg
   xmlns:dc="http://purl.org/dc/elements/1.1/"
   xmlns:cc="http://creativecommons.org/ns#"
   xmlns:rdf="http://www.w3.org/1999/02/22-rdf-syntax-ns#"
   xmlns:svg="http://www.w3.org/2000/svg"
   xmlns="http://www.w3.org/2000/svg"
   xmlns:sodipodi="http://sodipodi.sourceforge.net/DTD/sodipodi-0.dtd"
   xmlns:inkscape="http://www.inkscape.org/namespaces/inkscape"
   version="1.1"
   x="0px"
   y="0px"
   viewBox="0 0 100 125"
   enable-background="new 0 0 100 100"
   xml:space="preserve"
   id="svg2"
   inkscape:version="0.91 r13725"
   sodipodi:docname="imagemonkey_logo.svg"><metadata
     id="metadata26"><rdf:RDF><cc:Work
         rdf:about=""><dc:format>image/svg+xml</dc:format><dc:type
           rdf:resource="http://purl.org/dc/dcmitype/StillImage" /></cc:Work></rdf:RDF></metadata><defs
     id="defs24" /><sodipodi:namedview
     pagecolor="#ffffff"
     bordercolor="#666666"
     borderopacity="1"
     objecttolerance="10"
     gridtolerance="10"
     guidetolerance="10"
     inkscape:pageopacity="0"
     inkscape:pageshadow="2"
     inkscape:window-width="1600"
     inkscape:window-height="838"
     id="namedview22"
     showgrid="false"
     inkscape:zoom="1.888"
     inkscape:cx="50"
     inkscape:cy="62.5"
     inkscape:window-x="-8"
     inkscape:window-y="-8"
     inkscape:window-maximized="1"
     inkscape:current-layer="svg2" /><g
     display="none"
     id="g4"><rect
       x="-878.977"
       y="-483.45"
       display="inline"
       fill="#000000"
       width="1259.937"
       height="593.541"
       id="rect6" /></g><g
     id="g8"
     style="fill:#ffffff;fill-opacity:1"><path
       d="M73.545,61.837c0-2.541-0.981-4.922-2.763-6.703v0l-2.567-2.567c-1.782-1.782-4.163-2.763-6.704-2.763   c-2.541,0-4.922,0.981-6.704,2.763l-4.663,4.663l-4.663-4.663c-1.782-1.782-4.163-2.763-6.704-2.763   c-2.541,0-4.922,0.981-6.704,2.763l-2.567,2.567c-3.696,3.696-3.696,9.711,0.001,13.407l7.15,7.15   c0.399,0.399,0.841,0.762,1.351,1.111l0.84,0.574v8.144c0,5.227,4.253,9.48,9.481,9.48h3.63c5.227,0,9.48-4.253,9.48-9.48v-8.144   l0.84-0.574c0.51-0.349,0.952-0.712,1.351-1.111l7.15-7.15C72.564,66.759,73.545,64.378,73.545,61.837z M39.021,71.384   c-4.141,0-7.511-3.369-7.511-7.511c0-4.141,3.369-7.511,7.511-7.511c4.142,0,7.511,3.369,7.511,7.511   C46.532,68.014,43.163,71.384,39.021,71.384z M46.523,79.182c-1.144,0-2.075-0.931-2.075-2.075c0-1.144,0.931-2.075,2.075-2.075   s2.075,0.931,2.075,2.075C48.598,78.251,47.668,79.182,46.523,79.182z M53.766,79.182c-1.144,0-2.075-0.931-2.075-2.075   c0-1.144,0.931-2.075,2.075-2.075c1.144,0,2.074,0.931,2.074,2.075C55.841,78.251,54.91,79.182,53.766,79.182z M61.268,71.026   c-4.141,0-7.511-3.369-7.511-7.511c0-4.142,3.369-7.511,7.511-7.511c4.141,0,7.511,3.369,7.511,7.511   C68.779,67.657,65.409,71.026,61.268,71.026z"
       id="path10"
       style="fill:#ffffff;fill-opacity:1" /><path
       d="M86.339,35.61c-0.518,0.644-1.085,1.242-1.698,1.786l-2.986,2.653l-0.351-3.979c-0.814-9.222-5.425-18.102-12.206-23.732   c-1.471,2.849-3.159,5.574-5.034,8.129l-2.267,3.086l-1.253-3.618C58.528,14.109,55.012,8.883,50.531,5   c-2.719,4.752-5.806,9.28-9.198,13.488l-2.988,3.707l-1.243-10.265c-7.554,6.115-13.562,14.521-17.096,23.998l-1.282,3.437   l-2.206-2.93c-0.994-1.32-1.718-2.859-2.146-4.487C10.265,39.27,8.583,48.293,9.938,56.71c0.634,3.937,1.788,6.839,3.53,8.871   c5.869,6.85,13.275,11.154,21.146,13.445c-0.232-0.201-0.471-0.398-0.682-0.609l-7.151-7.15c-5.2-5.201-5.2-13.662,0-18.861   l2.567-2.567c2.51-2.51,5.86-3.893,9.431-3.893c3.572,0,6.921,1.383,9.431,3.893l1.936,1.935l1.936-1.935   c2.51-2.51,5.86-3.893,9.431-3.893c3.572,0,6.921,1.383,9.431,3.893l2.566,2.567v-0.001c2.51,2.51,3.893,5.86,3.893,9.431   c0,3.571-1.383,6.921-3.893,9.431l-7.15,7.15c-0.1,0.1-0.218,0.19-0.323,0.288c0.876-0.259,1.741-0.533,2.587-0.83   c13.625-4.788,25.903-17.183,20.664-33.082C88.465,42.3,87.266,38.535,86.339,35.61z"
       id="path12"
       style="fill:#ffffff;fill-opacity:1" /><path
       d="M39.021,60.654c-1.775,0-3.219,1.444-3.219,3.219c0,1.775,1.444,3.219,3.219,3.219c1.775,0,3.219-1.444,3.219-3.219   C42.24,62.098,40.796,60.654,39.021,60.654z"
       id="path14"
       style="fill:#ffffff;fill-opacity:1" /><path
       d="M61.268,60.296c-1.775,0-3.219,1.444-3.219,3.219c0,1.775,1.444,3.219,3.219,3.219c1.775,0,3.219-1.444,3.219-3.219   C64.487,61.74,63.043,60.296,61.268,60.296z"
       id="path16"
       style="fill:#ffffff;fill-opacity:1" /></g></svg>